<?xml version="1.0" encoding="utf-8"?>
<!-- Generator: Adobe Illustrator 23.0.6, SVG Export Plug-In . SVG Version: 6.00 Build 0)  -->
<svg version="1.1" id="Layer_1" xmlns="http://www.w3.org/2000/svg" xmlns:xlink="http://www.w3.org/1999/xlink" x="0px" y="0px"
	 viewBox="0 0 298.8 209.2" style="enable-background:new 0 0 298.8 209.2;" xml:space="preserve">
<linearGradient id="SVGID_1_" gradientUnits="userSpaceOnUse" x1="118.3765" y1="228.5439" x2="175.7158" y2="-0.8132" gradientTransform="matrix(1 0 0 -1 0 212)">
	<stop  offset="0" style="stop-color:#FFFFFF"/>
	<stop  offset="4.318180e-03" style="stop-color:#FFFFFF"/>
	<stop  offset="0.1827" style="stop-color:#EDEEEF"/>
	<stop  offset="0.25" style="stop-color:#DFE0E1"/>
	<stop  offset="0.3239" style="stop-color:#EFF0F0"/>
	<stop  offset="0.5" style="stop-color:#FFFFFF"/>
	<stop  offset="0.7102" style="stop-color:#EEEFEF"/>
	<stop  offset="0.759" style="stop-color:#DFE0E1"/>
	<stop  offset="0.8069" style="stop-color:#EDEDEE"/>
	<stop  offset="1" style="stop-color:#FFFFFF"/>
</linearGradient>
<path style="fill:url(#SVGID_1_);" d="M24.8,18.3l-12,137.2c0,0-1.1,12.2,11.1,13.3L256,189.1c0,0,12.2,1.1,13.3-11.1l12-137.2
	c0,0,1.1-12.2-11.1-13.3L38.1,7.2c0,0-0.3,0-0.7,0C34.7,7.2,25.8,8,24.8,18.3"/>
<path style="fill-rule:evenodd;clip-rule:evenodd;fill:#F7981D;" d="M171.6,104c-13.4,8.2-32.1,11.5-47.8,10.2
	c-22-1.9-41.2-11.8-55-26.7c-1.1-1.2,0.1-2.5,1.4-1.6c15.4,10.8,34.9,18.3,55.6,20.1c14,1.2,29.6-0.3,44.2-5.1
	C172.2,100.2,173.8,102.7,171.6,104"/>
<path style="fill-rule:evenodd;clip-rule:evenodd;fill:#F7981D;" d="M177.4,98.5c-1.4-2.2-10.6-1.9-14.7-1.8c-1.2,0-1.3-1.1-0.2-1.7
	c7.7-4.4,19.3-1.9,20.6-0.1c1.2,1.8-1.5,13.5-8.8,18.6c-1.1,0.8-2.1,0.2-1.5-0.9C174.7,108.9,178.8,100.7,177.4,98.5"/>
<path style="fill-rule:evenodd;clip-rule:evenodd;" d="M166.3,59.3l0.4-4.9c0.1-0.7,0.7-1.2,1.4-1.1l22.1,1.9
	c0.7,0.1,1.2,0.6,1.2,1.4l-0.4,4.2c-0.1,0.7-0.7,1.6-1.9,3l-13,15.2c4.2,0.3,8.7,1.3,12.3,3.8c0.8,0.6,1,1.3,1,2l-0.5,5.3
	c-0.1,0.7-0.9,1.5-1.7,1c-6.5-4.2-15.5-5.3-23.3-2c-0.8,0.3-1.5-0.6-1.5-1.3l0.4-5c0.1-0.8,0.2-2.2,1.1-3.3L179,61.6l-11.5-1
	C166.7,60.6,166.2,60,166.3,59.3"/>
<path style="fill-rule:evenodd;clip-rule:evenodd;" d="M83.1,83l-6.7-0.6c-0.6-0.1-1.1-0.6-1.1-1.2l3-34.4c0.1-0.7,0.7-1.2,1.4-1.1
	l6.2,0.5c0.7,0.1,1.1,0.6,1.1,1.3L86.6,52h0.1c2-4.2,5.3-6,9.4-5.6c4.2,0.4,6.7,2.6,8.1,7.1c2-4.2,5.9-5.9,9.8-5.6
	c2.8,0.2,5.8,1.7,7.4,4.4c1.9,3.1,1.1,7.2,0.7,10.9L120.5,85c-0.1,0.7-0.7,1.2-1.4,1.1l-6.7-0.6c-0.7-0.1-1.2-0.7-1.1-1.3l1.6-18.3
	c0.1-1.4,0.6-5.1,0.4-6.5c-0.3-2.4-1.7-3.1-3.7-3.3c-1.6-0.1-3.4,0.8-4.3,2.5c-0.8,1.7-1,4.6-1.2,6.5l-1.6,18.3
	c-0.1,0.7-0.7,1.2-1.4,1.1L94.4,84c-0.7-0.1-1.2-0.7-1.1-1.3l1.6-18.3c0.3-3.8,1.5-9.4-3.3-9.9c-4.8-0.4-5.1,5.1-5.5,9.1l-1.6,18.3
	C84.5,82.5,83.8,83,83.1,83"/>
<path style="fill-rule:evenodd;clip-rule:evenodd;" d="M210.4,56.3c10,0.9,14.6,9.9,13.6,20.8c-0.9,10.5-7.6,18.3-17,17.5
	c-9.8-0.9-14.3-9.9-13.4-20.5C194.6,63.3,200.7,55.4,210.4,56.3 M209.9,63.3c-4.9-0.4-5.9,6.3-6.2,10.5c-0.4,4.2-1.2,13.2,4,13.6
	c5.2,0.5,6.1-6.8,6.5-11.2c0.3-2.9,0.4-6.4-0.2-9.2C213.4,64.6,212,63.5,209.9,63.3"/>
<path style="fill-rule:evenodd;clip-rule:evenodd;" d="M235.4,96.3l-6.7-0.6c-0.7-0.1-1.2-0.7-1.1-1.3l3-34.5c0.1-0.6,0.7-1.1,1.4-1
	l6.2,0.5c0.6,0.1,1,0.5,1.1,1.1l-0.5,5.3h0.1c2.3-4.5,5.1-6.6,9.8-6.2c3,0.3,5.9,1.6,7.5,4.7c1.5,2.9,1.1,7.5,0.8,10.9l-1.9,21.7
	c-0.1,0.6-0.7,1-1.4,1l-6.7-0.6c-0.6-0.1-1.1-0.6-1.1-1.2l1.6-18.7c0.3-3.8,1.3-9.2-3.4-9.6c-1.6-0.1-3.2,0.8-4.1,2.4
	c-1.1,2-1.4,4.1-1.6,6.4l-1.6,18.5C236.8,95.9,236.1,96.4,235.4,96.3"/>
<path style="fill-rule:evenodd;clip-rule:evenodd;" d="M147.4,72c-0.2,2.6-0.4,4.8-1.9,7c-1.2,1.8-3,2.8-4.9,2.6
	c-2.6-0.2-3.9-2.3-3.7-5.2c0.5-5.7,5.7-6.3,10.6-5.9L147.4,72z M152.8,89c-0.5,0.4-1.1,0.3-1.6,0c-2.1-2-2.4-2.9-3.5-4.8
	c-4,3.4-6.7,4.3-11.5,3.9c-5.6-0.5-9.7-4.4-9.1-11.3c0.5-5.4,3.8-8.9,8.1-10.3c3.8-1.3,8.9-1.1,12.8-1.2l0.1-0.9
	c0.1-1.6,0.4-3.5-0.4-4.9c-0.7-1.3-2.2-2-3.6-2.1c-2.6-0.2-4.9,0.9-5.7,3.6c-0.2,0.6-0.7,1.2-1.3,1.1l-6.4-1.3
	c-0.5-0.2-1.1-0.7-0.9-1.5c2.2-7.8,9.5-9.5,15.9-9c3.3,0.3,7.5,1.5,9.8,4.2c3,3.3,2.3,7.4,1.9,11.8l-0.9,10.5
	c-0.3,3.1,0.9,4.6,2,6.4c0.4,0.7,0.4,1.4-0.2,1.8C156.9,86,154.2,87.9,152.8,89L152.8,89z"/>
<path style="fill-rule:evenodd;clip-rule:evenodd;" d="M59.5,64.3c-0.2,2.6-0.4,4.8-1.9,7c-1.2,1.8-3,2.8-4.9,2.6
	c-2.6-0.2-3.9-2.3-3.7-5.2c0.5-5.7,5.7-6.3,10.6-5.9L59.5,64.3z M64.8,81.3c-0.5,0.4-1.1,0.3-1.6,0c-2.1-2-2.4-2.9-3.5-4.8
	c-4,3.4-6.7,4.3-11.5,3.9c-5.6-0.5-9.7-4.4-9.1-11.3c0.5-5.4,3.8-8.9,8.1-10.3c3.8-1.3,8.9-1.1,12.8-1.2l0.1-0.9
	c0.1-1.6,0.4-3.5-0.4-4.9c-0.7-1.3-2.2-2-3.6-2.1c-2.6-0.2-5,0.9-5.7,3.6c-0.2,0.6-0.7,1.2-1.3,1.1L42.7,53
	c-0.5-0.2-1.1-0.7-0.9-1.5c2.2-7.8,9.5-9.5,15.9-9c3.3,0.3,7.5,1.5,9.8,4.2c3,3.3,2.3,7.4,1.9,11.8L68.5,69c-0.3,3.1,0.9,4.6,2,6.4
	c0.4,0.7,0.4,1.4-0.2,1.8C68.9,78.3,66.3,80.2,64.8,81.3L64.8,81.3z"/>
<path style="fill:#000810;" d="M249.6,129.2c0,0.5-0.2,1.8-1.3,1.7c-1-0.1-0.9-0.9-0.9-1.3l0.8-8.7c0.1-0.6,0.1-1.6,1.2-1.5
	c1,0.1,1,1.1,0.9,1.5L249.6,129.2z M250.5,118.6c-0.5-0.6-1-1.2-2-1.3c-1.8-0.2-2.4,1-2.6,2.6L245,130c-0.1,0.7-0.2,2.7,2.1,2.9
	c1.2,0.1,1.8-0.6,2.2-1.1l-0.1,1l2.3,0.2l1.8-20l-2.3-0.2L250.5,118.6z M242,116.9l-2.3-0.2l-1.3,15.2l2.3,0.2l0.9-10.2
	c0.1-1,0.3-2.9,1.9-2.8c0.7,0.1,1.1,0.3,1.3,0.6l0.2-2.6c-0.2,0-0.4-0.1-0.6-0.1c-1.4-0.1-2,0.9-2.5,1.7L242,116.9z M234.1,127.5
	c0,0.4-0.2,2.3-1.5,2.2c-0.9-0.1-0.8-1.1-0.7-1.9l0.1-1.5c0.1-0.7,0.3-1.1,1-1.5c0.5-0.3,1.2-0.7,1.5-0.9L234.1,127.5z M230.4,120.8
	l2.3,0.2l0.2-2.1c0-0.4,0.1-1.1,1.1-1c0.9,0.1,0.9,0.7,0.9,1.2l-0.2,2.3c0,0.1-0.5,0.5-1,0.8l-2.3,1.2c-1.5,0.8-1.5,1.6-1.6,2.7
	l-0.2,2.7c-0.1,0.7-0.2,2.6,1.9,2.7c1.2,0.1,1.8-0.6,2.3-1.2c0.1,0.6,0.1,0.7,0.3,1.3l2.4,0.2c-0.3-0.9-0.3-1.7-0.2-2.6l0.8-9.6
	c0.1-1,0.3-3.3-3-3.5c-3.3-0.3-3.5,2.2-3.6,3L230.4,120.8z M219.3,125.4c-0.1,1.1-0.2,2.3,0.3,3.3c0.6,1.3,2,2,3.4,2.1
	c3.8,0.3,4.6-2.5,4.8-4.8l0.3-3.4l-2.7-0.2l-0.3,3.7c-0.1,1.2-0.2,2.5-1.9,2.4c-1.6-0.1-1.5-1.3-1.4-2.5l1-11.1
	c0.1-1,0.2-2.5,1.9-2.3c1.6,0.1,1.5,1.6,1.5,2.2L226,118l2.6,0.2l0.2-2.6c0.1-1.4,0.4-4.9-3.7-5.3c-4.5-0.4-4.8,3.6-5,5.3
	L219.3,125.4z M209.7,110.8l-0.3,3.3L208,114l-0.2,1.9l1.4,0.1l-1,10.9c-0.1,1.6,0,2.5,2.2,2.7c0.5,0,0.9,0,1.3,0l0.2-1.7
	c-1.1,0-1.5-0.2-1.4-1.2l0.9-10.5l1.3,0.1l0.2-1.9l-1.3-0.1l0.3-3.3L209.7,110.8z M204.1,113.6l-1.3-0.1l-0.2,1.9l1.2,0.1l-1.2,13.3
	l2.3,0.2l1.2-13.3l1.4,0.1l0.2-1.9l-1.3-0.1l0.2-2c0.1-0.9,0.5-0.9,1.3-0.8l0.2-2c-0.6-0.1-1.1-0.2-1.5-0.2
	c-1.9-0.2-2.1,0.8-2.2,2.1L204.1,113.6z M197.7,128.3l2.3,0.2l1.3-15.2l-2.3-0.2L197.7,128.3z M199.5,108.4l-0.3,3l2.2,0.2l0.3-3
	L199.5,108.4z M188,122.8c-0.1,1.4-0.4,5,3.2,5.3c1.5,0.1,2.1-0.6,2.5-1l0.1,1l1.6,0.1l0.9-10.7l-4.2-0.4l-0.2,2.4l1.6,0.1l-0.4,4.5
	c-0.1,0.6-0.2,1.8-1.5,1.7c-1.3-0.1-1.2-1.2-1.1-2.5l1-11.5c0.1-1,0.2-2.2,1.5-2.1c1.2,0.1,1.1,1,1,2.1l-0.2,2.2l2.4,0.2l0.2-2.1
	c0.1-1.5,0.4-4.4-3.2-4.7c-0.8-0.1-2.4-0.1-3.4,1.4c-0.8,1.1-0.9,2.2-1.1,4L188,122.8z"/>
</svg>
